<svg width="12" height="11" viewBox="0 0 11 10" fill="none" xmlns="http://www.w3.org/2000/svg">
    <path
        d="M4.95368 9.0807C4.95368 9.28121 5.03333 9.47352 5.17512 9.6153C5.3169 9.75709 5.50921 9.83674 5.70972 9.83674C5.91024 9.83674 6.10254 9.75709 6.24433 9.6153C6.38612 9.47352 6.46577 9.28121 6.46577 9.0807V5.80449H9.74198C9.9425 5.80449 10.1348 5.72483 10.2766 5.58305C10.4184 5.44126 10.498 5.24895 10.498 5.04844C10.498 4.84792 10.4184 4.65562 10.2766 4.51383C10.1348 4.37204 9.9425 4.29239 9.74198 4.29239H6.46577V1.01618C6.46577 0.815664 6.38612 0.62336 6.24433 0.481573C6.10254 0.339787 5.91024 0.260132 5.70972 0.260132C5.50921 0.260132 5.3169 0.339787 5.17512 0.481573C5.03333 0.62336 4.95368 0.815664 4.95368 1.01618V4.29239H1.67747C1.47695 4.29239 1.28465 4.37204 1.14286 4.51383C1.00107 4.65562 0.921417 4.84792 0.921417 5.04844C0.921417 5.24895 1.00107 5.44126 1.14286 5.58305C1.28465 5.72483 1.47695 5.80449 1.67747 5.80449H4.95368V9.0807Z"
        fill="white" />
</svg>
    